<svg xmlns="http://www.w3.org/2000/svg" viewBox="0 0 960 560" font-family="Segoe UI, sans-serif">
<rect width="960" height="560" fill="#16131b"/>
<rect x="14" y="14" width="932" height="532" fill="none" stroke="#8a6d2f" stroke-width="3"/>
<circle cx="70" cy="58" r="26" fill="#211c29" stroke="#c9a24b" stroke-width="2.5"/>
<text x="400" y="64" fill="#e8dcc0" font-size="24" letter-spacing="3">SKILLS / TALENTS</text>
<rect x="806" y="34" width="96" height="48" fill="#241f2d" stroke="#e3b54e" stroke-width="2"/>
<text x="854" y="56" fill="#e8dcc0" font-size="12" text-anchor="middle">Wisdom chip</text>
<text x="854" y="72" fill="#c9a24b" font-size="12" text-anchor="middle">📖 34</text>
<rect x="40" y="100" width="560" height="360" fill="#0a0a0d" stroke="#3a2f18"/>
<g stroke="#6d5a2e" opacity="0.35"><line x1="140" y1="180" x2="260" y2="260"/><line x1="380" y1="180" x2="260" y2="260"/><line x1="260" y1="260" x2="260" y2="360"/></g>
<line x1="140" y1="180" x2="140" y2="300" stroke="#e3924b" stroke-width="4"/>
<g>
<rect x="112" y="130" width="56" height="56" fill="#241f2d" stroke="#b89448" stroke-width="3"/><text x="140" y="164" fill="#e8dcc0" font-size="18" text-anchor="middle">⚔</text><text x="168" y="132" fill="#9fd08a" font-size="12" text-anchor="end">✓</text><text x="140" y="200" fill="#c9a24b" font-size="10" text-anchor="middle">3/3</text>
<rect x="352" y="130" width="56" height="56" fill="#1a1621" stroke="#4a4152" stroke-width="2"/><text x="380" y="164" fill="#5a5264" font-size="18" text-anchor="middle">☁</text><text x="380" y="200" fill="#544b5e" font-size="10" text-anchor="middle">0/2</text>
<rect x="112" y="300" width="56" height="56" fill="#1d1925" stroke="#e3b54e" stroke-width="3"/><text x="140" y="334" fill="#e8dcc0" font-size="18" text-anchor="middle">⚡</text><rect x="122" y="352" width="36" height="14" rx="7" fill="#2e2716" stroke="#c9a24b"/><text x="140" y="363" fill="#e3b54e" font-size="9" text-anchor="middle">5</text>
<rect x="228" y="228" width="64" height="64" fill="#1d1925" stroke="#e3b54e" stroke-width="3"/><rect x="222" y="222" width="76" height="76" fill="none" stroke="#6d5a2e" stroke-width="2"/><text x="260" y="268" fill="#e8dcc0" font-size="20" text-anchor="middle">♛</text><rect x="238" y="288" width="44" height="14" rx="7" fill="#22301c" stroke="#7fb069"/><text x="260" y="299" fill="#9fd08a" font-size="9" text-anchor="middle">−12</text>
</g>
<text x="320" y="480" fill="#544b5e" font-size="10" text-anchor="middle">ICON-ONLY nodes on the black grid: cost pip (unlockable) · −n pip+ring (planned) · ✓ stamp (owned) · dim (locked) · big+double-frame (capstone) · live path = bright connector</text>
<rect x="620" y="100" width="300" height="240" fill="#1d1925" stroke="#4a3c1e"/>
<text x="770" y="124" fill="#c9a24b" font-size="10" text-anchor="middle" letter-spacing="2">SELECTED TALENT (detail column)</text>
<text x="770" y="150" fill="#e8dcc0" font-size="16" text-anchor="middle">Node Name</text>
<text x="636" y="176" fill="#bdb3a4" font-size="11">Description wraps INSIDE its band — the words</text>
<text x="636" y="192" fill="#bdb3a4" font-size="11">live HERE, never on the node plates.</text>
<text x="770" y="224" fill="#9fd08a" font-size="12" text-anchor="middle">Planned · −5 wisdom</text>
<rect x="636" y="250" width="60" height="60" fill="#241f2d" stroke="#8a6d2f"/><rect x="704" y="250" width="60" height="60" fill="#241f2d" stroke="#8a6d2f"/><rect x="772" y="250" width="60" height="60" fill="#1a1621" stroke="#3a3342" stroke-dasharray="4 3"/><rect x="840" y="250" width="60" height="60" fill="#1a1621" stroke="#3a3342" stroke-dasharray="4 3"/>
<text x="770" y="330" fill="#8d8272" font-size="10" text-anchor="middle">quick-swap slots 1–4 (numerals on plates, no caption strip)</text>
<rect x="620" y="360" width="140" height="38" fill="#241f2d" stroke="#4a4152"/><text x="690" y="384" fill="#8d8272" font-size="12" text-anchor="middle">Cancel plan</text>
<rect x="770" y="360" width="150" height="38" fill="#2e2716" stroke="#c9a24b" stroke-width="2"/><text x="845" y="384" fill="#e8dcc0" font-size="12" text-anchor="middle">CONFIRM 2 · −10 📖</text>
<rect x="390" y="492" width="180" height="38" fill="#2e2716" stroke="#8a6d2f" stroke-width="2"/>
<text x="480" y="516" fill="#e8dcc0" font-size="14" text-anchor="middle" letter-spacing="3">CLOSE</text>
<text x="480" y="548" fill="#544b5e" font-size="10" text-anchor="middle">FAMILY D — node graph (FrameTalent, pack TALENT TREE ref): Hero Skill Tree · Hero Talents · Pet Skill Tree · Hero Loadout (socket grammar)</text>
</svg>
